<?xml version="1.0" encoding="UTF-8"?>
<svg width="192px" height="192px" viewBox="0 0 192 192" version="1.1" xmlns="http://www.w3.org/2000/svg" xmlns:xlink="http://www.w3.org/1999/xlink">
    <title>Group</title>
    <g id="Page-1" stroke="none" stroke-width="1" fill="none" fill-rule="evenodd">
        <g id="Group">
            <circle id="Oval" fill="#FFFFFF" cx="95.5" cy="95.5" r="92.5"></circle>
            <g id="vinyl" fill="#000000" fill-rule="nonzero">
                <path d="M95.538,191.076 C42.858,191.076 0,148.218 0,95.538 C0,42.858 42.858,0 95.538,0 C148.218,0 191.076,42.858 191.076,95.538 C191.076,148.218 148.218,191.076 95.538,191.076 Z M95.538,4 C45.064,4 4,45.064 4,95.538 C4,146.012 45.064,187.076 95.538,187.076 C146.013,187.076 187.076,146.012 187.076,95.538 C187.076,45.064 146.013,4 95.538,4 Z M95.538,181.743 C48.005,181.743 9.333,143.072 9.333,95.538 C9.333,48.004 48.004,9.333 95.538,9.333 C143.072,9.333 181.743,48.004 181.743,95.538 C181.743,143.071 143.071,181.743 95.538,181.743 Z M95.538,13.333 C50.21,13.333 13.333,50.21 13.333,95.538 C13.333,140.866 50.21,177.743 95.538,177.743 C140.866,177.743 177.743,140.866 177.743,95.538 C177.743,50.21 140.866,13.333 95.538,13.333 Z M95.538,172.743 C52.967,172.743 18.333,138.109 18.333,95.538 C18.333,52.967 52.967,18.333 95.538,18.333 C96.642,18.333 97.538,19.229 97.538,20.333 C97.538,21.437 96.642,22.333 95.538,22.333 C55.173,22.333 22.333,55.173 22.333,95.538 C22.333,135.903 55.172,168.743 95.538,168.743 C96.642,168.743 97.538,169.639 97.538,170.743 C97.538,171.847 96.643,172.743 95.538,172.743 Z M95.538,153.384 C63.642,153.384 37.692,127.434 37.692,95.538 C37.692,63.642 63.642,37.692 95.538,37.692 C96.642,37.692 97.538,38.588 97.538,39.692 C97.538,40.796 96.642,41.692 95.538,41.692 C65.848,41.692 41.692,65.847 41.692,95.538 C41.692,125.228 65.847,149.384 95.538,149.384 C96.642,149.384 97.538,150.28 97.538,151.384 C97.538,152.488 96.643,153.384 95.538,153.384 Z M95.538,138.076 C72.083,138.076 53,118.994 53,95.538 C53,72.082 72.083,53 95.538,53 C118.994,53 138.076,72.083 138.076,95.538 C138.076,118.993 118.994,138.076 95.538,138.076 Z M95.538,57 C74.288,57 57,74.288 57,95.538 C57,116.788 74.288,134.076 95.538,134.076 C116.788,134.076 134.076,116.788 134.076,95.538 C134.076,74.288 116.788,57 95.538,57 Z M95.538,102.409 C91.749,102.409 88.666,99.326 88.666,95.538 C88.666,91.749 91.749,88.666 95.538,88.666 C99.327,88.666 102.409,91.749 102.409,95.538 C102.409,99.327 99.327,102.409 95.538,102.409 Z M95.538,92.667 C93.955,92.667 92.666,93.955 92.666,95.539 C92.666,97.122 93.954,98.41 95.538,98.41 C97.121,98.41 98.409,97.122 98.409,95.539 C98.409,93.955 97.121,92.667 95.538,92.667 Z" id="Shape"></path>
            </g>
        </g>
    </g>
</svg>